<?xml version="1.0" encoding="UTF-8"?>
<svg width="94px" height="32px" viewBox="0 0 94 32" version="1.1" xmlns="http://www.w3.org/2000/svg" xmlns:xlink="http://www.w3.org/1999/xlink">
    <!-- Generator: Sketch 46.2 (44496) - http://www.bohemiancoding.com/sketch -->
    <title>logo</title>
    <desc>Created with Sketch.</desc>
    <defs></defs>
    <g id="Symbols" stroke="none" stroke-width="1" fill="none" fill-rule="evenodd">
        <g id="logo" fill="#000000">
            <path d="M39.652082,12.3601212 L16.556593,30.5377323 C16.4366448,30.6358717 16.2621746,30.6195152 16.1585829,30.5050191 C16.0604435,30.3905231 16.0658957,30.2160529 16.1694873,30.107009 L25.6890161,20.5929325 L18.6120697,21.906911 C18.5084781,21.9232675 18.4103386,21.8960066 18.3449123,21.8142237 C18.2740338,21.737893 18.252225,21.6397535 18.279486,21.541614 L19.9969267,15.9476641 L0.46717185,31.6826928 C0.347223607,31.7808322 0.172753435,31.7644757 0.0691617706,31.6499796 C-0.0289777011,31.5300314 -0.0235255082,31.3555612 0.090970542,31.2465173 L20.1550403,12.1965555 C20.8365644,11.5531967 21.9106464,11.5641011 22.5703617,12.2292686 L28.316973,17.9649755 L45.7748946,0.507053937 C46.1129306,0.169017979 46.5600104,5.68434189e-14 47.001638,5.68434189e-14 C47.4432656,5.68434189e-14 47.8848932,0.169017979 48.2229292,0.507053937 L65.6808508,17.9649755 L71.4220099,12.2292686 C72.0871774,11.5641011 73.1612594,11.5531967 73.8427835,12.1965555 L93.9068533,31.2465173 C94.0213493,31.3555612 94.0322537,31.5300314 93.928662,31.6499796 C93.8305226,31.7644757 93.645148,31.7808322 93.530652,31.6826928 L74.0008971,15.9476641 L75.7128857,21.541614 C75.7455988,21.6397535 75.72379,21.737893 75.6583637,21.8142237 C75.5874852,21.8960066 75.4893457,21.9232675 75.3912063,21.906911 L68.3088077,20.5929325 L77.8228843,30.107009 C77.9319282,30.2160529 77.9373803,30.3905231 77.8392409,30.5050191 C77.7356492,30.6195152 77.561179,30.6358717 77.4412308,30.5377323 L54.3457418,12.3601212 L56.2540093,20.4239145 C56.2867225,20.5602193 56.215844,20.7019763 56.0904435,20.7564983 C55.9541387,20.8110202 55.8069295,20.7674026 55.7305988,20.6474544 L49.9567265,11.7385713 L47.2796998,24.2131885 C47.2524389,24.3494934 47.1379428,24.4421806 47.001638,24.4421806 C46.859881,24.4421806 46.7453849,24.3494934 46.718124,24.2131885 L44.0410973,11.7385713 L38.267225,20.6474544 C38.1854421,20.7674026 38.0382329,20.8110202 37.9128325,20.7564983 C37.7765277,20.7019763 37.7111013,20.5602193 37.7383623,20.4239145 L39.652082,12.3601212 Z" id="Logo"></path>
        </g>
    </g>
</svg>